<?xml version="1.0" encoding="utf-8"?>
<svg version="1.1" id="Layer_1" xmlns="http://www.w3.org/2000/svg" xmlns:xlink="http://www.w3.org/1999/xlink" x="0px" y="0px" viewBox="-95.5 -74.4 200 163.7" enable-background="new -95.5 -74.4 200 163.7" xml:space="preserve">
<g>
	<path fill="#9B9B9B" d="M-68.5,62.1v3.4h-2.2v-9.8h3.5c2.5,0,3.7,1,3.7,3.1c0,1-0.4,1.8-1.1,2.4c-0.7,0.6-1.7,0.9-2.8,0.9H-68.5z
		 M-68.5,57.4v3.1h0.9c1.2,0,1.8-0.5,1.8-1.5c0-1-0.6-1.5-1.8-1.5H-68.5z"/>
	<path fill="#9B9B9B" d="M-60.2,65.5h-2.2V55.1h2.2V65.5z"/>
	<path fill="#9B9B9B" d="M-52.6,65.5h-2v-1h0c-0.5,0.8-1.2,1.2-2.1,1.2c-0.7,0-1.2-0.2-1.6-0.6c-0.4-0.4-0.6-0.9-0.6-1.5
		c0-1.4,0.8-2.1,2.4-2.4l1.9-0.3c0-0.8-0.4-1.1-1.2-1.1c-0.8,0-1.6,0.2-2.4,0.7v-1.6c0.3-0.2,0.7-0.3,1.2-0.4s1-0.2,1.4-0.2
		c2,0,3,1,3,3V65.5z M-54.6,62.6v-0.5l-1.3,0.2c-0.7,0.1-1.1,0.4-1.1,1c0,0.2,0.1,0.4,0.3,0.6c0.2,0.2,0.4,0.2,0.7,0.2
		c0.4,0,0.7-0.1,1-0.4C-54.7,63.4-54.6,63-54.6,62.6z"/>
	<path fill="#9B9B9B" d="M-45.5,65.2c-0.5,0.3-1.2,0.4-2.1,0.4c-1.1,0-1.9-0.3-2.6-1s-1-1.5-1-2.5c0-1.2,0.4-2.1,1.1-2.8
		c0.7-0.7,1.7-1,2.9-1c0.8,0,1.4,0.1,1.8,0.3v1.8c-0.5-0.3-1-0.5-1.5-0.5c-0.6,0-1.1,0.2-1.5,0.5c-0.4,0.4-0.5,0.9-0.5,1.5
		c0,0.6,0.2,1.1,0.5,1.5c0.3,0.4,0.8,0.5,1.4,0.5c0.5,0,1.1-0.2,1.6-0.5V65.2z"/>
	<path fill="#9B9B9B" d="M-37.8,62.6h-4.6c0.1,1,0.7,1.5,1.9,1.5c0.8,0,1.4-0.2,2-0.5v1.6c-0.6,0.3-1.5,0.5-2.5,0.5
		c-1.1,0-2-0.3-2.6-0.9c-0.6-0.6-0.9-1.5-0.9-2.6c0-1.2,0.3-2.1,1-2.8s1.5-1,2.5-1c1,0,1.8,0.3,2.4,0.9s0.8,1.4,0.8,2.5V62.6z
		 M-39.8,61.2c0-1-0.4-1.5-1.2-1.5c-0.3,0-0.6,0.1-0.9,0.4s-0.4,0.6-0.5,1.1H-39.8z"/>
	<path fill="#9B9B9B" d="M-26,58.5l-2.8,7.6c-0.7,1.8-1.7,2.7-3.1,2.7c-0.5,0-1-0.1-1.3-0.2v-1.7c0.3,0.2,0.6,0.3,0.9,0.3
		c0.6,0,0.9-0.3,1.2-0.8l0.4-0.9l-2.8-7h2.4l1.3,4.3c0.1,0.3,0.1,0.6,0.2,0.9h0c0-0.3,0.1-0.6,0.2-0.9l1.3-4.3H-26z"/>
	<path fill="#9B9B9B" d="M-21.8,65.6c-1.2,0-2.1-0.3-2.8-1c-0.7-0.7-1-1.5-1-2.7c0-1.2,0.3-2.1,1-2.7c0.7-0.7,1.6-1,2.8-1
		c1.2,0,2.1,0.3,2.7,1c0.7,0.7,1,1.5,1,2.6c0,1.2-0.3,2.1-1,2.8S-20.6,65.6-21.8,65.6z M-21.8,59.9c-0.5,0-0.9,0.2-1.2,0.5
		s-0.4,0.8-0.4,1.5c0,1.3,0.5,2,1.6,2c1,0,1.6-0.7,1.6-2.1C-20.2,60.6-20.7,59.9-21.8,59.9z"/>
	<path fill="#9B9B9B" d="M-9.9,65.5h-2.2v-1.1h0c-0.5,0.8-1.2,1.2-2.1,1.2c-1.6,0-2.4-1-2.4-2.9v-4.2h2.2v4c0,1,0.4,1.5,1.2,1.5
		c0.4,0,0.7-0.1,0.9-0.4c0.2-0.3,0.3-0.6,0.3-1.1v-4h2.2V65.5z"/>
	<path fill="#9B9B9B" d="M-3.6,60.4c-0.3-0.1-0.6-0.2-0.9-0.2c-0.5,0-0.8,0.2-1.1,0.5C-5.8,61.1-6,61.5-6,62.1v3.3h-2.2v-7H-6v1.3h0
		c0.3-0.9,1-1.4,1.8-1.4c0.2,0,0.4,0,0.5,0.1V60.4z"/>
	<path fill="#9B9B9B" d="M8.2,65.5H6v-1h0c-0.5,0.8-1.2,1.1-2.2,1.1c-0.9,0-1.6-0.3-2.1-0.9c-0.5-0.6-0.8-1.5-0.8-2.6
		c0-1.2,0.3-2.1,0.9-2.8s1.4-1,2.3-1c0.9,0,1.5,0.3,1.9,1h0v-4.2h2.2V65.5z M6,62.1v-0.5c0-0.5-0.1-0.8-0.4-1.1s-0.6-0.5-1-0.5
		c-0.5,0-0.9,0.2-1.1,0.6c-0.3,0.4-0.4,0.9-0.4,1.5c0,0.6,0.1,1.1,0.4,1.4S4.1,64,4.6,64c0.4,0,0.8-0.2,1.1-0.5S6,62.6,6,62.1z"/>
	<path fill="#9B9B9B" d="M16.3,62.6h-4.6c0.1,1,0.7,1.5,1.9,1.5c0.8,0,1.4-0.2,2-0.5v1.6c-0.6,0.3-1.5,0.5-2.5,0.5
		c-1.1,0-2-0.3-2.6-0.9c-0.6-0.6-0.9-1.5-0.9-2.6c0-1.2,0.3-2.1,1-2.8s1.5-1,2.5-1c1,0,1.8,0.3,2.4,0.9c0.6,0.6,0.8,1.4,0.8,2.5
		V62.6z M14.3,61.2c0-1-0.4-1.5-1.2-1.5c-0.3,0-0.6,0.1-0.9,0.4c-0.3,0.3-0.4,0.6-0.5,1.1H14.3z"/>
	<path fill="#9B9B9B" d="M17.1,65.3v-1.8c0.4,0.2,0.7,0.4,1.1,0.5c0.4,0.1,0.7,0.2,1,0.2c0.4,0,0.7-0.1,0.9-0.2
		c0.2-0.1,0.3-0.3,0.3-0.5c0-0.1,0-0.3-0.2-0.3c-0.1-0.1-0.2-0.2-0.4-0.2s-0.3-0.1-0.5-0.2c-0.2-0.1-0.4-0.1-0.5-0.2
		c-0.3-0.1-0.5-0.2-0.7-0.3c-0.2-0.1-0.4-0.3-0.5-0.4s-0.3-0.3-0.3-0.6s-0.1-0.5-0.1-0.7c0-0.4,0.1-0.7,0.3-1s0.4-0.5,0.7-0.7
		c0.3-0.2,0.6-0.3,1-0.4c0.4-0.1,0.7-0.1,1.1-0.1c0.3,0,0.6,0,0.9,0.1c0.3,0,0.6,0.1,0.9,0.2v1.7c-0.3-0.2-0.6-0.3-0.9-0.4
		c-0.3-0.1-0.6-0.1-0.9-0.1c-0.1,0-0.3,0-0.4,0c-0.1,0-0.2,0.1-0.3,0.1c-0.1,0-0.2,0.1-0.2,0.2c-0.1,0.1-0.1,0.2-0.1,0.3
		c0,0.1,0,0.2,0.1,0.3s0.2,0.2,0.3,0.2c0.1,0.1,0.3,0.1,0.4,0.2c0.2,0.1,0.3,0.1,0.5,0.2c0.3,0.1,0.5,0.2,0.8,0.3s0.4,0.3,0.6,0.4
		c0.2,0.2,0.3,0.3,0.4,0.6s0.1,0.5,0.1,0.8c0,0.4-0.1,0.8-0.3,1.1c-0.2,0.3-0.4,0.5-0.7,0.7c-0.3,0.2-0.6,0.3-1,0.4
		c-0.4,0.1-0.8,0.1-1.2,0.1C18.5,65.6,17.7,65.5,17.1,65.3z"/>
	<path fill="#9B9B9B" d="M24.8,57.4c-0.4,0-0.7-0.1-0.9-0.3c-0.2-0.2-0.3-0.5-0.3-0.8c0-0.3,0.1-0.6,0.3-0.8s0.5-0.3,0.9-0.3
		c0.4,0,0.7,0.1,0.9,0.3c0.2,0.2,0.3,0.5,0.3,0.8c0,0.3-0.1,0.6-0.3,0.8C25.5,57.2,25.2,57.4,24.8,57.4z M25.9,65.5h-2.2v-7h2.2
		V65.5z"/>
	<path fill="#9B9B9B" d="M34.6,64.7c0,1.3-0.4,2.3-1.1,3c-0.8,0.7-1.8,1.1-3.3,1.1c-0.9,0-1.7-0.1-2.2-0.4v-1.8
		c0.7,0.4,1.4,0.6,2.2,0.6c0.7,0,1.3-0.2,1.7-0.6c0.4-0.4,0.6-0.9,0.6-1.6v-0.6h0c-0.5,0.8-1.2,1.2-2.2,1.2c-0.9,0-1.6-0.3-2.1-0.9
		s-0.8-1.5-0.8-2.5c0-1.2,0.3-2.1,0.9-2.8s1.4-1,2.3-1c0.9,0,1.5,0.3,1.9,1h0v-0.8h2.2V64.7z M32.4,62.1v-0.6c0-0.4-0.1-0.8-0.4-1.1
		c-0.3-0.3-0.6-0.5-1-0.5c-0.5,0-0.9,0.2-1.1,0.6s-0.4,0.9-0.4,1.6c0,0.6,0.1,1,0.4,1.4c0.3,0.3,0.6,0.5,1.1,0.5
		c0.4,0,0.8-0.2,1.1-0.5C32.3,63.1,32.4,62.7,32.4,62.1z"/>
	<path fill="#9B9B9B" d="M43.1,65.5H41v-3.9c0-1.1-0.4-1.6-1.2-1.6c-0.4,0-0.7,0.1-0.9,0.4s-0.4,0.7-0.4,1.1v4h-2.2v-7h2.2v1.1h0
		c0.5-0.9,1.3-1.3,2.2-1.3c1.5,0,2.3,1,2.3,2.9V65.5z"/>
	<path fill="#9B9B9B" d="M55.4,65.5h-2.2v-4c0-1-0.4-1.5-1.1-1.5c-0.4,0-0.7,0.1-0.9,0.4s-0.4,0.7-0.4,1.1v4h-2.2V55.1h2.2v4.4h0
		c0.5-0.8,1.2-1.2,2.2-1.2c1.6,0,2.4,1,2.4,2.9V65.5z"/>
	<path fill="#9B9B9B" d="M63.4,62.6h-4.6c0.1,1,0.7,1.5,1.9,1.5c0.8,0,1.4-0.2,2-0.5v1.6c-0.6,0.3-1.5,0.5-2.5,0.5
		c-1.1,0-2-0.3-2.6-0.9c-0.6-0.6-0.9-1.5-0.9-2.6c0-1.2,0.3-2.1,1-2.8s1.5-1,2.5-1c1,0,1.8,0.3,2.4,0.9c0.6,0.6,0.8,1.4,0.8,2.5
		V62.6z M61.4,61.2c0-1-0.4-1.5-1.2-1.5c-0.3,0-0.6,0.1-0.9,0.4c-0.3,0.3-0.4,0.6-0.5,1.1H61.4z"/>
	<path fill="#9B9B9B" d="M69.3,60.4c-0.3-0.1-0.6-0.2-0.9-0.2c-0.5,0-0.8,0.2-1.1,0.5c-0.3,0.3-0.4,0.8-0.4,1.4v3.3h-2.2v-7h2.2v1.3
		h0c0.3-0.9,1-1.4,1.8-1.4c0.2,0,0.4,0,0.5,0.1V60.4z"/>
	<path fill="#9B9B9B" d="M76.6,62.6H72c0.1,1,0.7,1.5,1.9,1.5c0.8,0,1.4-0.2,2-0.5v1.6c-0.6,0.3-1.5,0.5-2.5,0.5
		c-1.1,0-2-0.3-2.6-0.9c-0.6-0.6-0.9-1.5-0.9-2.6c0-1.2,0.3-2.1,1-2.8s1.5-1,2.5-1c1,0,1.8,0.3,2.4,0.9c0.6,0.6,0.8,1.4,0.8,2.5
		V62.6z M74.5,61.2c0-1-0.4-1.5-1.2-1.5c-0.3,0-0.6,0.1-0.9,0.4c-0.3,0.3-0.4,0.6-0.5,1.1H74.5z"/>
	<path fill="#9B9B9B" d="M78.8,65.6c-0.4,0-0.7-0.1-0.9-0.3s-0.4-0.5-0.4-0.8c0-0.3,0.1-0.6,0.4-0.8c0.2-0.2,0.5-0.3,0.9-0.3
		c0.4,0,0.7,0.1,0.9,0.3c0.2,0.2,0.4,0.5,0.4,0.8c0,0.3-0.1,0.6-0.4,0.8C79.5,65.5,79.2,65.6,78.8,65.6z"/>
</g>
<g>
	<g>
		<path id="path-1_3_" fill="none" stroke="#7E7E7E" stroke-miterlimit="10" d="M52.5,13.9v-64.2h-78 M27.2-23.4
			c0.5-0.4,1.2-0.2,1.5,0.3L48.3,8.4c0.3,0.5,0.1,1-0.5,1 M0.7-35.8L2-38.3c0.2-0.6,0.7-0.6,1-0.1 M38.8-30.2c3.2,0,5.8-2.7,5.8-6
			s-2.6-6-5.8-6s-5.8,2.7-5.8,6S35.6-30.2,38.8-30.2z"/>
	</g>
	<g id="miu_2_">
		<g id="editor_image_picture_photo_outline_stroke_2_">
			<g>
				<path id="path-1_4_" fill="none" stroke="#7E7E7E" stroke-miterlimit="10" d="M-47-30.8c-0.2,0-0.4,0.2-0.4,0.4v54.1
					c0,0.2,0.2,0.4,0.4,0.4h64.5c0.2,0,0.4-0.2,0.4-0.4v-54.1c0-0.2-0.2-0.4-0.4-0.4H-47z M-44.5-27.8v48.9h59.4v-48.9H-44.5z
					 M-22.8-18.7l9.7,17.2c0.1,0.2,0.4,0.3,0.6,0.1l8.2-5.9c0.4-0.3,0.9-0.2,1.2,0.2l14.9,24c0.3,0.4,0.1,0.7-0.4,0.7h-52.5
					c-0.5,0-0.7-0.3-0.4-0.8l17-33.7l1-1.9C-23.4-19.1-23-19.1-22.8-18.7z M4.5-12.5C7-12.5,9-14.6,9-17.1s-2-4.6-4.5-4.6
					S0-19.6,0-17.1C0-14.5,2-12.5,4.5-12.5z"/>
			</g>
			<g>
				<path id="path-1_1_" fill="none" stroke="#7E7E7E" stroke-miterlimit="10" d="M-47-30.8c-0.2,0-0.4,0.2-0.4,0.4v54.1
					c0,0.2,0.2,0.4,0.4,0.4h64.5c0.2,0,0.4-0.2,0.4-0.4v-54.1c0-0.2-0.2-0.4-0.4-0.4H-47z M-44.5-27.8v48.9h59.4v-48.9H-44.5z
					 M-22.8-18.7l9.7,17.2c0.1,0.2,0.4,0.3,0.6,0.1l8.2-5.9c0.4-0.3,0.9-0.2,1.2,0.2l14.9,24c0.3,0.4,0.1,0.7-0.4,0.7h-52.5
					c-0.5,0-0.7-0.3-0.4-0.8l17-33.7l1-1.9C-23.4-19.1-23-19.1-22.8-18.7z M4.5-12.5C7-12.5,9-14.6,9-17.1s-2-4.6-4.5-4.6
					S0-19.6,0-17.1C0-14.5,2-12.5,4.5-12.5z"/>
			</g>
		</g>
	</g>
	<g>
		<path fill="none" stroke="#7E7E7E" stroke-miterlimit="10" d="M38.8-30.2c3.2,0,5.8-2.7,5.8-6c0-3.3-2.6-6-5.8-6s-5.8,2.7-5.8,6
			C33-32.9,35.6-30.2,38.8-30.2z"/>
		<path fill="none" stroke="#7E7E7E" stroke-miterlimit="10" d="M0.7-35.8L2-38.3c0.2-0.6,0.7-0.6,1-0.1l4.3,7.6h10.2
			c0.2,0,0.4,0.2,0.4,0.4v13.7l9.3-6.7c0.5-0.4,1.2-0.2,1.5,0.3L48.3,8.4c0.3,0.5,0.1,1-0.5,1H17.9v4.5h34.6v-64.2h-78v19.5h23.7
			L0.7-35.8z M38.8-42.2c3.2,0,5.8,2.7,5.8,6c0,3.3-2.6,6-5.8,6s-5.8-2.7-5.8-6C33-39.5,35.6-42.2,38.8-42.2z"/>
		<path fill="none" stroke="#7E7E7E" stroke-miterlimit="10" d="M48.3,8.4L28.7-23.1c-0.3-0.5-1-0.7-1.5-0.3l-9.3,6.7V9.4h29.9
			C48.4,9.4,48.6,8.9,48.3,8.4z"/>
		<path fill="none" stroke="#7E7E7E" stroke-miterlimit="10" d="M7.3-30.8L3-38.4c-0.3-0.5-0.8-0.5-1,0.1l-1.3,2.5l-2.5,5"/>
		<path fill="none" stroke="#7E7E7E" stroke-miterlimit="10" d="M55.8-54.3h-84.7c-0.3,0-0.5,0.3-0.5,0.6v22.9h3.9v-19.5h78v64.2
			H17.9V18h37.9c0.3,0,0.5-0.3,0.5-0.6v-71.1C56.3-54,56.1-54.3,55.8-54.3z"/>
		<path fill="none" stroke="#7E7E7E" stroke-miterlimit="10" d="M-29.4-30.8"/>
		<path fill="none" stroke="#7E7E7E" stroke-miterlimit="10" d="M-47-30.8c-0.2,0-0.4,0.2-0.4,0.4v54.1c0,0.2,0.2,0.4,0.4,0.4h64.5
			c0.2,0,0.4-0.2,0.4-0.4V18"/>
		<path fill="none" stroke="#7E7E7E" stroke-miterlimit="10" d="M7.3-30.8"/>
		<path fill="none" stroke="#7E7E7E" stroke-miterlimit="10" d="M17.9-30.4c0-0.2-0.2-0.4-0.4-0.4"/>
		<path fill="none" stroke="#7E7E7E" stroke-miterlimit="10" d="M17.9-16.7"/>
		<path fill="none" stroke="#7E7E7E" stroke-miterlimit="10" d="M-1.8-30.8"/>
		<path fill="none" stroke="#7E7E7E" stroke-miterlimit="10" d="M7.3-30.8"/>
		<line fill="none" stroke="#7E7E7E" stroke-miterlimit="10" x1="17.9" y1="9.4" x2="17.9" y2="-16.7"/>
		<line fill="none" stroke="#7E7E7E" stroke-miterlimit="10" x1="-25.5" y1="-30.8" x2="-29.4" y2="-30.8"/>
		<line fill="none" stroke="#7E7E7E" stroke-miterlimit="10" x1="17.9" y1="18" x2="17.9" y2="13.9"/>
		<path fill="none" stroke="#7E7E7E" stroke-miterlimit="10" d="M-1.8-30.8"/>
		<line fill="none" stroke="#7E7E7E" stroke-miterlimit="10" x1="17.9" y1="13.9" x2="17.9" y2="9.4"/>
		<path fill="none" stroke="#7E7E7E" stroke-miterlimit="10" d="M-25.5-30.8"/>
	</g>
</g>
</svg>
