<?xml version="1.0" encoding="utf-8"?>
<!-- Generator: Adobe Illustrator 18.0.0, SVG Export Plug-In . SVG Version: 6.00 Build 0)  -->
<!DOCTYPE svg PUBLIC "-//W3C//DTD SVG 1.1//EN" "http://www.w3.org/Graphics/SVG/1.1/DTD/svg11.dtd">
<svg version="1.1" id="Layer_1" xmlns="http://www.w3.org/2000/svg" xmlns:xlink="http://www.w3.org/1999/xlink" x="0px" y="0px"
	 width="106.5px" height="82.5px" viewBox="0 0 106.5 82.5" enable-background="new 0 0 106.5 82.5" xml:space="preserve">
<g id="miu_1_">
	<g id="editor_image_picture_photo_outline_stroke_1_">
		<g>
			<path id="path-1_3_" fill="none" stroke="#FA4F1A" stroke-width="0.5" stroke-miterlimit="10" d="M20,2.5c-0.3,0-0.5,0.3-0.5,0.6
				v71.1c0,0.3,0.2,0.6,0.5,0.6h84.7c0.3,0,0.5-0.3,0.5-0.6V3.1c0-0.3-0.2-0.6-0.5-0.6H20z M23.4,6.5v64.2h78V6.5H23.4z M51.9,18.4
				L64.6,41c0.2,0.3,0.5,0.4,0.7,0.2l10.8-7.8c0.5-0.4,1.2-0.2,1.5,0.3l19.6,31.5c0.3,0.5,0.1,1-0.5,1H27.9c-0.6,0-0.9-0.5-0.6-1
				l22.3-44.2l1.3-2.5C51.1,17.9,51.6,17.9,51.9,18.4z M87.7,26.6c3.2,0,5.8-2.7,5.8-6s-2.6-6-5.8-6s-5.8,2.7-5.8,6
				S84.5,26.6,87.7,26.6z"/>
		</g>
		<g>
			<path id="path-1_2_" fill="none" stroke="#FA4F1A" stroke-width="0.5" stroke-miterlimit="10" d="M20,2.5c-0.3,0-0.5,0.3-0.5,0.6
				v71.1c0,0.3,0.2,0.6,0.5,0.6h84.7c0.3,0,0.5-0.3,0.5-0.6V3.1c0-0.3-0.2-0.6-0.5-0.6H20z M23.4,6.5v64.2h78V6.5H23.4z M51.9,18.4
				L64.6,41c0.2,0.3,0.5,0.4,0.7,0.2l10.8-7.8c0.5-0.4,1.2-0.2,1.5,0.3l19.6,31.5c0.3,0.5,0.1,1-0.5,1H27.9c-0.6,0-0.9-0.5-0.6-1
				l22.3-44.2l1.3-2.5C51.1,17.9,51.6,17.9,51.9,18.4z M87.7,26.6c3.2,0,5.8-2.7,5.8-6s-2.6-6-5.8-6s-5.8,2.7-5.8,6
				S84.5,26.6,87.7,26.6z"/>
		</g>
	</g>
</g>
<rect x="1.4" y="26.3" fill="#E9E6ED" width="65.2" height="54.7"/>
<g id="miu_2_">
	<g id="editor_image_picture_photo_outline_stroke_2_">
		<g>
			<path id="path-1_4_" fill="none" stroke="#FA4F1A" stroke-width="0.5" stroke-miterlimit="10" d="M1.9,26c-0.2,0-0.4,0.2-0.4,0.4
				v54.1c0,0.2,0.2,0.4,0.4,0.4h64.5c0.2,0,0.4-0.2,0.4-0.4V26.4c0-0.2-0.2-0.4-0.4-0.4H1.9z M4.4,29v48.9h59.4V29H4.4z M26.1,38.1
				l9.7,17.2c0.1,0.2,0.4,0.3,0.6,0.1l8.2-5.9c0.4-0.3,0.9-0.2,1.2,0.2l14.9,24c0.3,0.4,0.1,0.7-0.4,0.7H7.8c-0.5,0-0.7-0.3-0.4-0.8
				l17-33.7l1-1.9C25.5,37.7,25.9,37.7,26.1,38.1z M53.4,44.3c2.5,0,4.5-2.1,4.5-4.6c0-2.5-2-4.6-4.5-4.6s-4.5,2.1-4.5,4.6
				C48.9,42.3,50.9,44.3,53.4,44.3z"/>
		</g>
		<g>
			<path id="path-1_1_" fill="none" stroke="#FA4F1A" stroke-width="0.5" stroke-miterlimit="10" d="M1.9,26c-0.2,0-0.4,0.2-0.4,0.4
				v54.1c0,0.2,0.2,0.4,0.4,0.4h64.5c0.2,0,0.4-0.2,0.4-0.4V26.4c0-0.2-0.2-0.4-0.4-0.4H1.9z M4.4,29v48.9h59.4V29H4.4z M26.1,38.1
				l9.7,17.2c0.1,0.2,0.4,0.3,0.6,0.1l8.2-5.9c0.4-0.3,0.9-0.2,1.2,0.2l14.9,24c0.3,0.4,0.1,0.7-0.4,0.7H7.8c-0.5,0-0.7-0.3-0.4-0.8
				l17-33.7l1-1.9C25.5,37.7,25.9,37.7,26.1,38.1z M53.4,44.3c2.5,0,4.5-2.1,4.5-4.6c0-2.5-2-4.6-4.5-4.6s-4.5,2.1-4.5,4.6
				C48.9,42.3,50.9,44.3,53.4,44.3z"/>
		</g>
	</g>
</g>
</svg>
