<?xml version="1.0" encoding="utf-8"?>
<svg version="1.1" xmlns="http://www.w3.org/2000/svg" xmlns:xlink="http://www.w3.org/1999/xlink" x="0" y="0" viewBox="15.2 15.2 20 20" xml:space="preserve" >
	<path fill="#070707" d="M33.3,30.6l-5.8-5.8l5.8-5.7c0.2-0.2,0.2-0.6,0-0.9l-1.6-1.6c-0.1-0.1-0.3-0.2-0.4-0.2
	c-0.2,0-0.3,0.1-0.4,0.2l-5.7,5.7l-5.7-5.7c-0.1-0.1-0.3-0.2-0.4-0.2c-0.2,0-0.3,0.1-0.4,0.2l-1.6,1.6c-0.2,0.2-0.2,0.6,0,0.9
	l5.8,5.7l-5.7,5.8c-0.1,0.1-0.2,0.3-0.2,0.4c0,0.2,0.1,0.3,0.2,0.4l1.6,1.6c0.1,0.1,0.3,0.2,0.4,0.2c0.2,0,0.3-0.1,0.4-0.2l5.7-5.8
	l5.7,5.7c0.1,0.1,0.3,0.2,0.4,0.2c0.2,0,0.3-0.1,0.4-0.2l1.6-1.6c0.1-0.1,0.2-0.3,0.2-0.4C33.5,30.8,33.4,30.7,33.3,30.6z"/>
</svg>
