<?xml version="1.0" encoding="utf-8"?>
<!-- Generator: Adobe Illustrator 18.0.0, SVG Export Plug-In . SVG Version: 6.00 Build 0)  -->
<!DOCTYPE svg PUBLIC "-//W3C//DTD SVG 1.1//EN" "http://www.w3.org/Graphics/SVG/1.1/DTD/svg11.dtd">
<svg version="1.1" id="Layer_1" xmlns:sketch="http://www.bohemiancoding.com/sketch/ns"
	 xmlns="http://www.w3.org/2000/svg" xmlns:xlink="http://www.w3.org/1999/xlink" x="0px" y="0px" width="22px" height="18px"
	 viewBox="0 0 22 18" enable-background="new 0 0 22 18" xml:space="preserve">
<title></title>
<g id="miu">
	<g id="editor_image_picture_photo_outline_stroke">
		<g>
			<path id="path-1" fill="none" stroke="#9B9B9B" stroke-width="0.5" stroke-miterlimit="10" d="M1.1,0.4C1.1,0.4,1,0.5,1,0.5v16
				c0,0.1,0.1,0.1,0.1,0.1h19.6c0.1,0,0.1-0.1,0.1-0.1v-16c0-0.1-0.1-0.1-0.1-0.1H1.1z M1.9,1.3v14.4h18V1.3H1.9z M8.5,4l2.9,5.1
				c0,0.1,0.1,0.1,0.2,0l2.5-1.8c0.1-0.1,0.3-0.1,0.3,0.1l4.5,7.1c0.1,0.1,0,0.2-0.1,0.2H2.9c-0.1,0-0.2-0.1-0.1-0.2L8,4.6L8.2,4
				C8.3,3.9,8.4,3.9,8.5,4z M16.8,5.8c0.7,0,1.4-0.6,1.4-1.4s-0.6-1.4-1.4-1.4c-0.7,0-1.4,0.6-1.4,1.4S16,5.8,16.8,5.8z"/>
		</g>
		<g>
			<path id="path-1_1_" fill="none" stroke="#9B9B9B" stroke-width="0.5" stroke-miterlimit="10" d="M1.1,0.4C1.1,0.4,1,0.5,1,0.5
				v16c0,0.1,0.1,0.1,0.1,0.1h19.6c0.1,0,0.1-0.1,0.1-0.1v-16c0-0.1-0.1-0.1-0.1-0.1H1.1z M1.9,1.3v14.4h18V1.3H1.9z M8.5,4l2.9,5.1
				c0,0.1,0.1,0.1,0.2,0l2.5-1.8c0.1-0.1,0.3-0.1,0.3,0.1l4.5,7.1c0.1,0.1,0,0.2-0.1,0.2H2.9c-0.1,0-0.2-0.1-0.1-0.2L8,4.6L8.2,4
				C8.3,3.9,8.4,3.9,8.5,4z M16.8,5.8c0.7,0,1.4-0.6,1.4-1.4s-0.6-1.4-1.4-1.4c-0.7,0-1.4,0.6-1.4,1.4S16,5.8,16.8,5.8z"/>
		</g>
	</g>
</g>
</svg>
