<?xml version="1.0" encoding="utf-8"?>
<!-- Generator: Adobe Illustrator 18.0.0, SVG Export Plug-In . SVG Version: 6.00 Build 0)  -->
<!DOCTYPE svg PUBLIC "-//W3C//DTD SVG 1.1//EN" "http://www.w3.org/Graphics/SVG/1.1/DTD/svg11.dtd">
<svg version="1.1" id="Layer_1" xmlns="http://www.w3.org/2000/svg" xmlns:xlink="http://www.w3.org/1999/xlink" x="0px" y="0px"
	 width="32px" height="32px" viewBox="0 0 32 32" enable-background="new 0 0 32 32" xml:space="preserve">
<path fill="#FFFFFF" d="M22.5,15.1H22c-0.5,0-0.8-0.4-0.8-0.9c0-0.2,0.1-0.5,0.3-0.6l0.4-0.4c0.4-0.4,0.4-0.9,0-1.3l-0.8-0.8
	c-0.2-0.2-0.4-0.3-0.6-0.3c-0.2,0-0.5,0.1-0.6,0.3l-0.3,0.3c-0.2,0.2-0.4,0.3-0.6,0.3c-0.5,0-0.9-0.4-0.9-0.8v-0.6
	c0-0.5-0.4-0.9-0.9-0.9h-1.1c-0.5,0-0.9,0.4-0.9,0.9v0.6c0,0.5-0.4,0.8-0.9,0.8c-0.2,0-0.5-0.1-0.6-0.3L13,11.1
	c-0.2-0.2-0.4-0.3-0.6-0.3c-0.2,0-0.5,0.1-0.6,0.3L10.9,12c-0.4,0.4-0.4,0.9,0,1.3l0.3,0.3c0.2,0.2,0.3,0.4,0.3,0.6
	c0,0.5-0.4,0.9-0.8,0.9h-0.6c-0.5,0-0.9,0.4-0.9,0.9v0.6v0.6c0,0.5,0.4,0.9,0.9,0.9h0.6c0.5,0,0.8,0.4,0.8,0.9
	c0,0.2-0.1,0.5-0.3,0.6l-0.3,0.3c-0.4,0.4-0.4,0.9,0,1.3l0.8,0.8c0.2,0.2,0.4,0.3,0.6,0.3s0.5-0.1,0.6-0.3l0.4-0.4
	c0.2-0.2,0.4-0.3,0.6-0.3c0.5,0,0.9,0.4,0.9,0.8v0.6c0,0.5,0.4,0.9,0.9,0.9h1.1c0.5,0,0.9-0.4,0.9-0.9v-0.6c0-0.5,0.4-0.8,0.9-0.8
	c0.2,0,0.5,0.1,0.6,0.3l0.3,0.3c0.2,0.2,0.4,0.3,0.6,0.3c0.2,0,0.5-0.1,0.6-0.3l0.8-0.8c0.4-0.4,0.4-0.9,0-1.3l-0.4-0.4
	c-0.2-0.2-0.3-0.4-0.3-0.6c0-0.5,0.4-0.9,0.8-0.9h0.6c0.5,0,0.9-0.4,0.9-0.9v-0.6V16C23.4,15.5,23,15.1,22.5,15.1z M19.3,16.5
	L19.3,16.5c0,1.6-1.3,3-3,3s-3-1.3-3-3l0,0l0,0c0-1.6,1.3-3,3-3C18,13.6,19.3,14.9,19.3,16.5L19.3,16.5z"/>
</svg>
