<?xml version="1.0" encoding="utf-8"?>
<!-- Generator: Adobe Illustrator 18.0.0, SVG Export Plug-In . SVG Version: 6.00 Build 0)  -->
<!DOCTYPE svg PUBLIC "-//W3C//DTD SVG 1.1//EN" "http://www.w3.org/Graphics/SVG/1.1/DTD/svg11.dtd">
<svg version="1.1" id="Layer_1" xmlns="http://www.w3.org/2000/svg" xmlns:xlink="http://www.w3.org/1999/xlink" x="0px" y="0px"
	 width="181.8px" height="32px" viewBox="0 0 181.8 32" enable-background="new 0 0 181.8 32" xml:space="preserve">
<g>
	<path fill="#FFFFFF" d="M30,5.3h4.2c3.4,0,5,1.7,5,5.4v6.5c0,3.7-1.6,5.4-5,5.4H30V5.3z M34,20.2c1.9,0,2.6-1,2.6-3.7v-5
		c0-2.7-0.7-3.7-2.6-3.7h-1.3v12.4H34z"/>
	<path fill="#FFFFFF" d="M49.5,7.8h-5.2v4.6h3.8v2.5h-3.8v5.4h5.2v2.5h-7.9V5.3h7.9V7.8z"/>
	<path fill="#FFFFFF" d="M54.8,22.6L51.1,5.3h2.8l2.6,13.2l2.3-13.2h2.7l-3.4,17.3H54.8z"/>
	<path fill="#FFFFFF" d="M66.2,22.6h-2.7V5.3h2.7V22.6z"/>
	<path fill="#FFFFFF" d="M75.4,10.9v-0.4c0-2-0.7-3-2-3c-0.7,0-1.3,0.3-1.6,0.9c-0.3,0.6-0.4,1.1-0.4,2.5v5.8c0,1.3,0.1,2,0.3,2.6
		c0.3,0.7,0.9,1.1,1.7,1.1c1,0,1.6-0.6,1.9-1.7c0.1-0.4,0.1-0.8,0.2-2.1h2.7v0.6c0,3.8-1.6,5.7-4.8,5.7c-1.7,0-3.1-0.7-3.9-1.9
		c-0.6-1.1-0.8-2.1-0.8-4.7v-4.9c0-2.8,0.2-3.7,1-4.8c0.8-1,2.1-1.6,3.7-1.6c3,0,4.7,2,4.7,5.4v0.5H75.4z"/>
	<path fill="#FFFFFF" d="M88.3,7.8h-5.2v4.6h3.8v2.5h-3.8v5.4h5.2v2.5h-7.9V5.3h7.9V7.8z"/>
	<path fill="#FFFFFF" d="M100.6,10.1c-0.4-1.7-1.2-2.6-2.3-2.6c-1,0-1.7,0.8-1.7,1.8c0,0.6,0.3,1.2,0.7,1.7c0.4,0.5,0.4,0.5,2.3,1.9
		c1.5,1.1,2,1.6,2.6,2.3c0.7,0.9,1.1,2,1.1,3.2c0,2.6-1.9,4.4-4.8,4.4c-3,0-4.7-1.6-5.3-4.9l2.6-0.8c0.3,2.1,1.2,3.1,2.7,3.1
		c1.2,0,2-0.8,2-2c0-1.1-0.5-1.8-2.6-3.4c-2.4-1.9-2.5-2-3.2-2.8c-0.6-0.8-1-1.8-1-2.9c0-2.5,1.9-4.3,4.5-4.3c2.5,0,4.1,1.5,4.9,4.3
		L100.6,10.1z"/>
	<path fill="#FFFFFF" d="M107.8,15v7.6h-2.7V5.3h2.7v7.2h3.8V5.3h2.7v17.3h-2.7V15H107.8z"/>
	<path fill="#FFFFFF" d="M126.2,17.1c0,2-0.3,3.1-1,4.1c-0.8,1.1-2.1,1.7-3.7,1.7s-3-0.6-3.7-1.7c-0.7-1-1-2.2-1-4.1v-6.3
		c0-1.9,0.3-3.1,1-4.1c0.8-1.1,2.1-1.7,3.7-1.7s3,0.6,3.7,1.7c0.7,1,1,2.2,1,4.1V17.1z M119.5,17.1c0,1.4,0.1,1.8,0.3,2.4
		c0.3,0.6,1,0.9,1.7,0.9s1.4-0.4,1.7-0.9c0.3-0.5,0.3-1,0.3-2.4v-6.2c0-1.4-0.1-1.8-0.3-2.4c-0.3-0.6-1-0.9-1.7-0.9
		s-1.4,0.4-1.7,0.9c-0.3,0.5-0.3,1-0.3,2.4V17.1z"/>
	<path fill="#FFFFFF" d="M133.9,22.6h-2.7V7.8h-3.4V5.3h9.4v2.5h-3.4V22.6z"/>
	<path fill="#FFFFFF" d="M145.7,10.1c-0.4-1.7-1.2-2.6-2.3-2.6c-1,0-1.7,0.8-1.7,1.8c0,0.6,0.3,1.2,0.7,1.7c0.4,0.5,0.4,0.5,2.3,1.9
		c1.5,1.1,2,1.6,2.6,2.3c0.7,0.9,1.1,2,1.1,3.2c0,2.6-1.9,4.4-4.8,4.4c-3,0-4.7-1.6-5.3-4.9l2.6-0.8c0.3,2.1,1.2,3.1,2.7,3.1
		c1.2,0,2-0.8,2-2c0-1.1-0.5-1.8-2.6-3.4c-2.4-1.9-2.5-2-3.2-2.8c-0.6-0.8-1-1.8-1-2.9c0-2.5,1.9-4.3,4.5-4.3c2.5,0,4.1,1.5,4.9,4.3
		L145.7,10.1z"/>
</g>
<g>
	<g>
		<path fill="#FFFFFF" d="M21.4,20.9V10.6c0-0.9-0.6-1.7-1.2-1.7H2.7c-0.7,0-1.2,0.8-1.2,1.7v10.3c0,0.9,0.6,1.7,1.2,1.7h17.5
			C20.9,22.6,21.4,21.9,21.4,20.9z M19.6,14.6c0.1,0,0.2,0.1,0.2,0.3v1.7c0,0.1-0.1,0.3-0.2,0.3h0c-0.1,0-0.2-0.1-0.2-0.3v-1.7
			C19.3,14.8,19.4,14.6,19.6,14.6L19.6,14.6L19.6,14.6z M19.8,13.8c0,0.2-0.1,0.3-0.2,0.3s-0.2-0.1-0.2-0.3s0.1-0.3,0.2-0.3
			S19.8,13.6,19.8,13.8z M2.3,15.8c0-0.6,0.4-1.1,0.8-1.1s0.8,0.5,0.8,1.1c0,0.6-0.4,1.1-0.8,1.1S2.3,16.4,2.3,15.8z M4.8,21.5V10.1
			h13.3v11.4H4.8z"/>
	</g>
	<rect x="6.7" y="7.5" fill="#1C262B" width="8.8" height="16.5"/>
	<g>
		<path fill="#FFFFFF" d="M15,5.4H7.9C7.2,5.4,6.7,6,6.7,6.6v16.7c0,0.7,0.5,1.2,1.2,1.2H15c0.7,0,1.2-0.5,1.2-1.2V6.6
			C16.2,6,15.7,5.4,15,5.4z M10.6,7.2c0-0.1,0.1-0.2,0.2-0.2H12c0.1,0,0.2,0.1,0.2,0.2v0c0,0.1-0.1,0.2-0.2,0.2h-1.2
			C10.7,7.4,10.6,7.4,10.6,7.2L10.6,7.2L10.6,7.2z M10,7c0.1,0,0.2,0.1,0.2,0.2c0,0.1-0.1,0.2-0.2,0.2S9.9,7.3,9.9,7.2
			C9.9,7.1,9.9,7,10,7z M11.4,23.7c-0.4,0-0.8-0.4-0.8-0.8s0.4-0.8,0.8-0.8s0.8,0.4,0.8,0.8S11.9,23.7,11.4,23.7z M15.4,21.3H7.5
			V8.6h7.9V21.3z"/>
	</g>
	<circle fill="none" stroke="#FFFFFF" stroke-width="0.5" stroke-miterlimit="10" cx="11.4" cy="15.9" r="2.8"/>
</g>
</svg>
